<?xml version="1.0" standalone="no"?>
<!DOCTYPE svg PUBLIC "-//W3C//DTD SVG 20010904//EN"
 "http://www.w3.org/TR/2001/REC-SVG-20010904/DTD/svg10.dtd">
<svg version="1.0" xmlns="http://www.w3.org/2000/svg"
 width="3264.000000pt" height="3264.000000pt" viewBox="0 0 3264.000000 3264.000000"
 preserveAspectRatio="xMidYMid meet">
<metadata>
Created by potrace 1.14, written by Peter Selinger 2001-2017
</metadata>
<g transform="translate(0.000000,3264.000000) scale(0.100000,-0.100000)"
fill="#000000" stroke="none">
<path d="M0 16320 l0 -16320 16320 0 16320 0 0 16320 0 16320 -16320 0 -16320
0 0 -16320z m17410 5062 c302 -63 453 -136 611 -292 181 -179 248 -364 236
-647 -5 -140 -26 -217 -87 -332 -66 -123 -197 -252 -363 -356 -42 -27 -74 -52
-70 -56 5 -3 33 -15 63 -24 222 -72 413 -194 523 -333 58 -74 119 -197 146
-294 47 -168 43 -418 -9 -578 -152 -456 -611 -729 -1350 -799 -244 -24 -622
-36 -987 -32 l-133 1 0 28 c0 16 -2 31 -5 34 -3 2 -56 -12 -118 -33 -138 -46
-310 -84 -439 -98 -141 -16 -436 -14 -548 4 -552 84 -980 430 -1196 966 -89
222 -138 463 -155 754 -23 417 44 792 202 1124 247 519 688 842 1244 911 194
24 514 9 712 -34 52 -11 76 -11 145 0 226 36 588 80 863 104 50 5 209 7 355 5
217 -3 282 -7 360 -23z"/>
<path d="M16655 20995 c-170 -19 -282 -35 -342 -46 l-53 -10 0 -52 c1 -69 76
-1137 81 -1141 6 -5 617 41 695 53 216 32 369 91 509 195 175 131 258 330 221
528 -47 247 -210 396 -506 464 -93 22 -450 27 -605 9z"/>
<path d="M14985 20894 c-463 -87 -789 -437 -909 -975 -70 -316 -59 -721 29
-1024 125 -430 397 -739 754 -854 133 -43 224 -54 411 -48 236 8 391 44 607
143 61 27 73 37 73 56 0 22 -38 573 -75 1093 -8 116 -35 503 -60 860 -25 358
-47 655 -50 662 -5 14 -104 46 -230 74 -122 28 -434 35 -550 13z"/>
<path d="M16715 19389 c-355 -24 -345 -23 -345 -57 -1 -15 18 -305 42 -644
l42 -616 29 -6 c84 -17 559 2 738 29 511 78 778 305 779 661 0 249 -127 444
-358 551 -218 101 -405 118 -927 82z"/>
</g>
</svg>
